#!OML:ASF H:\Martial Arts Walks\Project 1\Capture day 1\Session 1\male.ASF
:FULLY-SPECIFIED
:DEGREES
1876
root -4.53928 13.6769 -42.3317 12.396 -55.8111 -13.487
lowerback 14.633 5.8959 0.119374
upperback -3.45631 8.11789 1.57852
thorax -12.2349 3.88039 -0.365788
lowerneck -1.46365 9.13766 1.38816
upperneck 6.46365 11.973 3.00305
head 2.17223 6.06531 0.984218
rclavicle -3.18428e-014 6.36111e-015
rhumerus -53.5809 52.4904 -111.775
rradius 113.953
rwrist -79.4805
rhand 12.4124 -28.0734
rfingers 7.12502
rthumb 37.4107 -54.0305
lclavicle -3.18428e-014 6.36111e-015
lhumerus 2.61177 13.2401 82.907
lradius 91.9584
lwrist -28.903
lhand -37.0529 51.5813
lfingers 7.12502
lthumb -10.1257 -278.682
rfemur -26.879 -31.2701 12.5328
rtibia 82.6593
rfoot -35.0474 -22.2545
rtoes -16.0394
lfemur -62.6333 43.8902 -7.6388
ltibia 75.6667
lfoot -5.14694 2.94386
ltoes 1.07696
1877
root -4.545 13.6647 -42.3476 12.3428 -55.7864 -13.4202
lowerback 14.6371 5.90595 0.0737557
upperback -3.46313 8.12194 1.56847
thorax -12.2503 3.88486 -0.353824
lowerneck -1.49333 9.11352 1.41127
upperneck 6.46295 11.9382 3.02051
head 2.17794 6.04914 0.986961
rclavicle 1.80894e-013 1.43125e-014
rhumerus -53.5143 52.4203 -111.724
rradius 113.959
rwrist -79.4625
rhand 12.4572 -28.1576
rfingers 7.12502
rthumb 37.453 -54.1036
lclavicle 1.80894e-013 1.43125e-014
lhumerus 2.6775 13.1578 82.9255
lradius 91.9737
lwrist -28.9234
lhand -36.9723 51.5548
lfingers 7.12502
lthumb -10.048 -278.705
rfemur -26.9857 -31.3032 12.5783
rtibia 82.8635
rfoot -35.1958 -22.2689
rtoes -15.9464
lfemur -62.7221 43.8796 -7.63363
ltibia 75.7047
lfoot -5.08387 2.90347
ltoes 1.01965
1878
root -4.55087 13.6529 -42.3634 12.2931 -55.7607 -13.364
lowerback 14.6452 5.91827 0.0343246
upperback -3.46761 8.12998 1.55703
thorax -12.2643 3.89067 -0.34803
lowerneck -1.52851 9.08593 1.44086
upperneck 6.47067 11.898 3.04148
head 2.18765 6.03058 0.99032
rclavicle 5.65294e-014 4.37326e-015
rhumerus -53.443 52.3422 -111.67
rradius 113.961
rwrist -79.4486
rhand 12.5019 -28.2398
rfingers 7.12502
rthumb 37.4953 -54.1746
lclavicle 5.65294e-014 4.37326e-015
lhumerus 2.75319 13.0712 82.9515
lradius 91.9798
lwrist -28.9734
lhand -36.8983 51.5334
lfingers 7.12502
lthumb -9.97654 -278.723
rfemur -27.0823 -31.3354 12.6273
rtibia 83.0614
rfoot -35.3444 -22.28
rtoes -15.8443
lfemur -62.8024 43.8692 -7.61729
ltibia 75.742
lfoot -5.0171 2.8638
ltoes 0.95445
1879
root -4.55684 13.6413 -42.3792 12.2486 -55.7334 -13.3211
lowerback 14.6568 5.92961 0.00118489
upperback -3.47003 8.13806 1.54767
thorax -12.2774 3.89611 -0.343646
lowerneck -1.56133 9.05835 1.47083
upperneck 6.48331 11.8575 3.06414
head 2.19848 6.01199 0.994181
rclavicle -5.92627e-014 -2.50469e-014
rhumerus -53.3778 52.2675 -111.619
rradius 113.963
rwrist -79.4354
rhand 12.5456 -28.3102
rfingers 7.12502
rthumb 37.5366 -54.2341
lclavicle -5.92627e-014 -2.50469e-014
lhumerus 2.8329 12.9899 82.9823
lradius 91.9814
lwrist -29.0476
lhand -36.8462 51.5275
lfingers 7.12502
lthumb -9.9263 -278.727
rfemur -27.1686 -31.3664 12.6813
rtibia 83.2527
rfoot -35.4905 -22.2932
rtoes -15.7381
lfemur -62.8748 43.8591 -7.58793
ltibia 75.78
lfoot -4.94779 2.82384
ltoes 0.884404
1880
root -4.56287 13.6298 -42.3948 12.2131 -55.7038 -13.2945
lowerback 14.6706 5.93879 -0.0250789
upperback -3.47075 8.14492 1.54208
thorax -12.2895 3.90065 -0.338742
lowerneck -1.59019 9.03235 1.49731
upperneck 6.49949 11.8191 3.08936
head 2.20939 5.99442 0.99929
rclavicle 5.56846e-014 2.74323e-014
rhumerus -53.3217 52.2002 -111.573
rradius 113.969
rwrist -79.4185
rhand 12.5863 -28.3628
rfingers 7.12502
rthumb 37.5751 -54.2764
lclavicle 5.56846e-014 2.74323e-014
lhumerus 2.914 12.9162 83.0167
lradius 91.9827
lwrist -29.1339
lhand -36.8211 51.5425
lfingers 7.12502
lthumb -9.90206 -278.71
rfemur -27.2465 -31.3962 12.7436
rtibia 83.4377
rfoot -35.6306 -22.3166
rtoes -15.6379
lfemur -62.9428 43.8497 -7.54498
ltibia 75.8198
lfoot -4.877 2.78238
ltoes 0.812909
1881
root -4.56893 13.6184 -42.4104 12.1893 -55.6711 -13.2856
lowerback 14.6852 5.94453 -0.0452418
upperback -3.47092 8.14896 1.542
thorax -12.3015 3.90365 -0.330536
lowerneck -1.6107 9.00978 1.51591
upperneck 6.51686 11.7856 3.11806
head 2.21844 5.97912 1.00632
rclavicle -4.93731e-014 -1.59028e-014
rhumerus -53.2793 52.1446 -111.534
rradius 113.981
rwrist -79.3941
rhand 12.6217 -28.3918
rfingers 7.12502
rthumb 37.6085 -54.2965
lclavicle -4.93731e-014 -1.59028e-014
lhumerus 2.99171 12.8526 83.0532
lradius 91.9877
lwrist -29.2179
lhand -36.8183 51.5743
lfingers 7.12502
lthumb -9.89932 -278.678
rfemur -27.3189 -31.4247 12.8172
rtibia 83.6172
rfoot -35.7624 -22.3559
rtoes -15.552
lfemur -63.0102 43.8408 -7.48927
ltibia 75.8622
lfoot -4.80564 2.73899
ltoes 0.7448
1882
root -4.575 13.6068 -42.426 12.1793 -55.6346 -13.2944
lowerback 14.7001 5.9475 -0.0600686
upperback -3.4713 8.1509 1.54712
thorax -12.3138 3.90551 -0.319122
lowerneck -1.62539 8.99031 1.52763
upperneck 6.53627 11.7563 3.14984
head 2.22648 5.96586 1.01516
rclavicle 1.18538e-013 5.56597e-015
rhumerus -53.2479 52.0985 -111.502
rradius 114
rwrist -79.3598
rhand 12.6462 -28.3874
rfingers 7.12502
rthumb 37.6316 -54.2859
lclavicle 1.18538e-013 5.56597e-015
lhumerus 3.06496 12.7957 83.0914
lradius 91.9987
lwrist -29.287
lhand -36.8238 51.6117
lfingers 7.12502
lthumb -9.90468 -278.641
rfemur -27.3891 -31.4528 12.9038
rtibia 83.7924
rfoot -35.8854 -22.4123
rtoes -15.4826
lfemur -63.0808 43.8322 -7.42267
ltibia 75.9071
lfoot -4.73416 2.6937
ltoes 0.684689
1883
root -4.58109 13.5952 -42.4417 12.1826 -55.5945 -13.3189
lowerback 14.7147 5.94748 -0.0718198
upperback -3.47297 8.15012 1.55788
thorax -12.3279 3.9061 -0.302623
lowerneck -1.63254 8.97468 1.53229
upperneck 6.5577 11.7325 3.18302
head 2.23326 5.95516 1.02528
rclavicle 1.37161e-014 3.97569e-016
rhumerus -53.2296 52.0629 -111.479
rradius 114.025
rwrist -79.3155
rhand 12.6582 -28.3553
rfingers 7.12502
rthumb 37.643 -54.2507
lclavicle 1.37161e-014 3.97569e-016
lhumerus 3.12958 12.7467 83.1304
lradius 92.0178
lwrist -29.3342
lhand -36.8226 51.6402
lfingers 7.12502
lthumb -9.90351 -278.613
rfemur -27.4596 -31.4803 13.0038
rtibia 83.9638
rfoot -35.9997 -22.4851
rtoes -15.4258
lfemur -63.1557 43.8237 -7.34741
ltibia 75.9534
lfoot -4.66292 2.64667
ltoes 0.636717
1884
root -4.58718 13.5836 -42.4573 12.1982 -55.5519 -13.3568
lowerback 14.7283 5.9447 -0.081652
upperback -3.47628 8.14668 1.57379
thorax -12.3438 3.90551 -0.280922
lowerneck -1.63296 8.96293 1.5317
upperneck 6.58168 11.7142 3.21527
head 2.23937 5.94706 1.03576
rclavicle 5.97224e-014 2.3059e-014
rhumerus -53.2232 52.0383 -111.463
rradius 114.055
rwrist -79.2638
rhand 12.657 -28.2982
rfingers 7.12502
rthumb 37.6418 -54.194
lclavicle 5.97224e-014 2.3059e-014
lhumerus 3.18416 12.7058 83.1689
lradius 92.0457
lwrist -29.3584
lhand -36.8081 51.6494
lfingers 7.12502
lthumb -9.88948 -278.603
rfemur -27.5316 -31.5074 13.1164
rtibia 84.1313
rfoot -36.1077 -22.5686
rtoes -15.3699
lfemur -63.2329 43.8147 -7.26447
ltibia 75.9989
lfoot -4.59206 2.5991
ltoes 0.603979
1885
root -4.5933 13.5723 -42.473 12.2224 -55.5083 -13.4037
lowerback 14.741 5.94025 -0.0904196
upperback -3.48092 8.14161 1.59284
thorax -12.361 3.90421 -0.25597
lowerneck -1.6295 8.95398 1.52944
upperneck 6.60937 11.6999 3.24357
head 2.24614 5.94083 1.04531
rclavicle 1.24402e-013 1.03368e-014
rhumerus -53.2241 52.0229 -111.454
rradius 114.086
rwrist -79.2089
rhand 12.648 -28.2242
rfingers 7.12502
rthumb 37.6334 -54.1223
lclavicle 1.24402e-013 1.03368e-014
lhumerus 3.22994 12.6709 83.2062
lradius 92.0815
lwrist -29.3648
lhand -36.7821 51.6354
lfingers 7.12502
lthumb -9.86444 -278.616
rfemur -27.6054 -31.5335 13.2388
rtibia 84.2944
rfoot -36.2128 -22.6551
rtoes -15.2965
lfemur -63.3085 43.8045 -7.17536
ltibia 76.0409
lfoot -4.52201 2.55204
ltoes 0.588471
